<?xml version="1.0" encoding="UTF-8" standalone="no"?>
<svg
   xmlns:dc="http://purl.org/dc/elements/1.1/"
   xmlns:cc="http://creativecommons.org/ns#"
   xmlns:rdf="http://www.w3.org/1999/02/22-rdf-syntax-ns#"
   xmlns:svg="http://www.w3.org/2000/svg"
   xmlns="http://www.w3.org/2000/svg"
   viewBox="0 0 177.5 177.5"
   height="177.5"
   width="177.5"
   xml:space="preserve"
   version="1.1"
   id="svg2"><metadata
     id="metadata8"><rdf:RDF><cc:Work
         rdf:about=""><dc:format>image/svg+xml</dc:format><dc:type
           rdf:resource="http://purl.org/dc/dcmitype/StillImage" /></cc:Work></rdf:RDF></metadata><defs
     id="defs6" /><g
     transform="matrix(1.25,0,0,-1.25,0,177.5)"
     id="g10"><g
       transform="scale(0.1,0.1)"
       id="g12"><path
         id="path14"
         style="fill:#fff200;fill-opacity:1;fill-rule:evenodd;stroke:none"
         d="m 680.195,1009.81 0,-280.173 -271.929,0 c 10.152,147.019 126.097,265.722 271.929,280.173 z M 0,1415.82 l 680.195,0 0,-354.87 C 506.285,1046.23 367.559,904.723 357.223,729.637 L 0,729.637 0,1415.82" /><path
         id="path16"
         style="fill:#ec008c;fill-opacity:1;fill-rule:evenodd;stroke:none"
         d="m 1012.05,729.637 -277.921,0 0,280.703 C 882.77,998.602 1001.77,878.668 1012.05,729.637 Z m -277.921,686.183 683.191,0 0,-686.183 -354.22,0 C 1052.64,906.73 910.84,1049.47 734.129,1061.41 l 0,354.41" /><path
         id="path18"
         style="fill:#00adef;fill-opacity:1;fill-rule:evenodd;stroke:none"
         d="m 220.281,79.5898 c 0,-2.1289 -0.195,-4.0664 -0.574,-5.8125 -0.375,-1.746 -1.324,-3.457 -2.844,-5.1289 -1.519,-1.5195 -3.269,-2.582 -5.242,-3.1875 -1.976,-0.6054 -4.101,-0.914 -6.383,-0.914 l -61.066,0 c -2.281,0 -4.332,0.3789 -6.152,1.1406 -1.825,0.7578 -3.497,1.8984 -5.016,3.418 -1.52,1.6718 -2.547,3.3437 -3.074,5.0117 -0.535,1.6719 -0.797,3.5703 -0.797,5.6992 l 0,105.7306 c 0,2.281 0.34,4.367 1.027,6.266 0.68,1.898 1.781,3.609 3.301,5.128 1.519,1.52 3.191,2.622 5.016,3.305 1.82,0.684 3.793,1.024 5.921,1.024 l 61.067,0 c 2.285,0 4.371,-0.266 6.269,-0.793 1.899,-0.536 3.61,-1.637 5.129,-3.309 1.52,-1.52 2.504,-3.227 2.961,-5.125 0.457,-1.902 0.684,-3.988 0.684,-6.27 l 0,-12.531 c 0,-0.152 0,-0.304 0,-0.457 0,-0.301 -0.078,-0.57 -0.227,-0.797 -0.152,-0.23 -0.304,-0.414 -0.457,-0.57 -0.304,-0.152 -0.531,-0.227 -0.687,-0.227 l -0.227,0 c -0.148,-0.152 -0.265,-0.226 -0.34,-0.226 -0.074,0 -0.187,0 -0.343,0 l -10.707,0 c -0.153,0 -0.266,0 -0.344,0 -0.078,0 -0.192,0.074 -0.34,0.226 l -0.231,0 c -0.148,0 -0.375,0.075 -0.683,0.227 -0.149,0.156 -0.301,0.34 -0.457,0.57 -0.149,0.227 -0.227,0.496 -0.227,0.797 0,0.153 0,0.305 0,0.457 l 0,10.485 c 0,0.148 0,0.265 0,0.339 0,0.075 -0.074,0.188 -0.226,0.34 l 0,0.227 c 0,0.156 -0.074,0.383 -0.227,0.683 -0.156,0.157 -0.344,0.309 -0.57,0.457 -0.227,0.153 -0.496,0.231 -0.797,0.231 -0.152,0 -0.305,0 -0.457,0 l -56.055,0 c -0.152,0 -0.265,-0.035 -0.343,-0.117 -0.079,-0.074 -0.192,-0.114 -0.34,-0.114 l -0.231,0 c -0.148,-0.148 -0.375,-0.3 -0.683,-0.457 -0.149,-0.148 -0.344,-0.375 -0.571,-0.683 -0.226,-0.301 -0.34,-0.606 -0.34,-0.906 l 0.227,-36.461 c 0,-1.368 0.383,-2.582 1.141,-3.645 0.761,-1.062 1.597,-2.055 2.507,-2.965 0.153,-0.152 0.266,-0.301 0.34,-0.453 0.078,-0.156 0.192,-0.226 0.34,-0.226 0.61,-0.61 1.141,-1.18 1.598,-1.715 0.457,-0.528 0.914,-1.098 1.367,-1.707 0.457,-0.606 0.949,-1.215 1.48,-1.825 0.532,-0.605 1.102,-1.214 1.711,-1.82 0.153,0 0.266,-0.074 0.34,-0.23 0.078,-0.153 0.192,-0.227 0.344,-0.227 1.062,-1.062 2.012,-2.168 2.848,-3.305 0.836,-1.136 1.254,-2.543 1.254,-4.214 l 0,-42.8402 c 0,-0.1485 0,-0.3047 0,-0.4571 0,-0.3008 0.074,-0.5703 0.226,-0.7969 0.152,-0.2265 0.305,-0.414 0.457,-0.5664 0.305,-0.1562 0.527,-0.2304 0.684,-0.2304 l 0.226,0 c 0.157,-0.1524 0.27,-0.2266 0.34,-0.2266 0.078,0 0.192,0 0.344,0 l 40.789,0 c 0.152,0 0.266,0 0.344,0 0.074,0 0.187,0.0742 0.34,0.2266 l 0.23,0 c 0.148,0 0.379,0.0742 0.68,0.2304 0.152,0.1524 0.304,0.3399 0.457,0.5664 0.152,0.2266 0.226,0.4961 0.226,0.7969 0,0.1524 0,0.3086 0,0.4571 l 0,10.7109 c 0,0.1523 0,0.2656 0,0.3437 0,0.0704 0.078,0.1875 0.227,0.3399 0,0.1523 0.078,0.3047 0.226,0.4531 0,0.1563 0.082,0.3086 0.231,0.457 0.152,0.1524 0.308,0.2266 0.457,0.2266 0.152,0.1523 0.305,0.2305 0.457,0.2305 0.148,0.1523 0.262,0.2265 0.34,0.2265 0.078,0 0.191,0 0.344,0 l 10.48,0 c 0.152,0 0.305,0 0.457,0 0.305,0 0.566,-0.0742 0.797,-0.2265 0.226,-0.1524 0.418,-0.3047 0.57,-0.4571 0.153,-0.3007 0.227,-0.5273 0.227,-0.6836 l 0,-0.2265 c 0.148,-0.1524 0.23,-0.2695 0.23,-0.3399 0,-0.0781 0,-0.1914 0,-0.3437 l 0,-13.2149 z m 25.289,75.8792 c 0,2.125 0.231,4.101 0.684,5.926 0.457,1.82 1.371,3.492 2.734,5.011 1.52,1.672 3.305,2.848 5.36,3.535 2.05,0.68 4.289,1.024 6.718,1.024 l 45.118,0 c 2.281,0 4.367,-0.27 6.269,-0.797 1.895,-0.535 3.606,-1.633 5.125,-3.305 1.52,-1.519 2.543,-3.23 3.078,-5.129 0.528,-1.898 0.797,-3.988 0.797,-6.265 l 0,-75.8792 c 0,-1.9765 -0.305,-3.8359 -0.91,-5.5859 -0.609,-1.7461 -1.52,-3.3789 -2.738,-4.8984 -1.52,-1.668 -3.227,-2.8438 -5.125,-3.5313 -1.903,-0.6836 -3.989,-1.0273 -6.266,-1.0273 l -45.801,0 c -2.277,0 -4.332,0.3789 -6.152,1.1406 -1.824,0.7578 -3.496,1.8984 -5.016,3.418 -1.519,1.6718 -2.543,3.3437 -3.074,5.0117 -0.531,1.6719 -0.801,3.5703 -0.801,5.6992 l 0,75.6526 z m 30.309,-73.3752 c 0,-0.1485 0,-0.3047 0,-0.4571 0,-0.3008 0.078,-0.5703 0.226,-0.7969 0.153,-0.2265 0.305,-0.414 0.458,-0.5664 0.304,-0.1562 0.531,-0.2304 0.683,-0.2304 l 0.231,0 c 0.148,-0.1524 0.261,-0.2266 0.339,-0.2266 0.075,0 0.188,0 0.34,0 l 25.981,0 c 0.148,0 0.265,0 0.34,0 0.074,0 0.187,0.0742 0.339,0.2266 l 0.231,0 c 0.152,0 0.379,0.0742 0.68,0.2304 0.156,0.1524 0.308,0.3399 0.457,0.5664 0.152,0.2266 0.23,0.4961 0.23,0.7969 0,0.1524 0,0.3086 0,0.4571 l -0.23,71.3242 c 0,0.152 0,0.266 0,0.34 0,0.074 -0.075,0.191 -0.227,0.344 l 0,0.226 c 0,0.156 -0.074,0.383 -0.23,0.684 -0.149,0.152 -0.34,0.304 -0.567,0.457 -0.226,0.152 -0.496,0.226 -0.797,0.226 -0.152,0 -0.304,0 -0.457,0 l -40.789,0 c -0.148,0 -0.262,0 -0.344,0 -0.074,0 -0.187,-0.074 -0.339,-0.226 -0.153,0 -0.301,-0.078 -0.454,-0.231 -0.152,0 -0.304,-0.074 -0.457,-0.226 -0.152,-0.149 -0.23,-0.301 -0.23,-0.457 -0.152,-0.149 -0.227,-0.301 -0.227,-0.453 -0.152,-0.153 -0.226,-0.27 -0.226,-0.344 0,-0.074 0,-0.188 0,-0.34 l 0,-20.738 c 0,-1.364 0.379,-2.582 1.14,-3.645 0.758,-1.062 1.594,-2.047 2.508,-2.961 0.149,-0.152 0.262,-0.304 0.34,-0.457 0.074,-0.148 0.188,-0.226 0.34,-0.226 0.609,-0.61 1.137,-1.18 1.594,-1.711 0.457,-0.532 0.914,-1.102 1.371,-1.707 0.457,-0.606 0.949,-1.215 1.48,-1.825 0.532,-0.609 1.024,-1.214 1.481,-1.82 0.152,-0.156 0.344,-0.305 0.566,-0.457 0.231,-0.152 0.422,-0.305 0.57,-0.457 0.915,-1.062 1.75,-2.125 2.508,-3.191 0.762,-1.063 1.141,-2.352 1.141,-3.871 l 0,-28.2582 z M 379.785,66.8281 c 0,-0.3047 0,-0.6093 0,-0.9101 0,-0.3086 -0.148,-0.6094 -0.457,-0.9141 -0.453,-0.1484 -0.754,-0.3047 -0.91,-0.457 -0.152,0 -0.266,0 -0.34,0 -0.078,0 -0.191,0 -0.34,0 l -11.855,0 c -2.426,0 -4.742,0.3086 -6.949,0.914 -2.2,0.6055 -4.137,1.8204 -5.809,3.6446 -1.367,1.6718 -2.355,3.3437 -2.961,5.0117 -0.605,1.6719 -0.914,3.5703 -0.914,5.6992 l 0,119.4026 c 0,0.148 0,0.265 0,0.344 0,0.074 0.078,0.187 0.23,0.339 0,0.153 0.079,0.305 0.227,0.457 0,0.153 0.078,0.301 0.227,0.457 0.156,0.153 0.308,0.227 0.457,0.227 0.152,0.152 0.304,0.227 0.457,0.227 0.152,0.152 0.265,0.226 0.343,0.226 0.075,0 0.188,0 0.34,0 l 10.707,0 c 0.153,0 0.309,0 0.457,0 0.305,0 0.571,-0.074 0.797,-0.226 0.231,-0.153 0.418,-0.301 0.574,-0.454 0.149,-0.304 0.227,-0.535 0.227,-0.683 l 0,-0.231 c 0.148,-0.152 0.227,-0.265 0.227,-0.339 0,-0.079 0,-0.196 0,-0.344 l 0,-21.422 c 0,-1.973 0.531,-3.645 1.593,-5.012 1.063,-1.367 2.282,-2.656 3.645,-3.871 0.308,-0.305 0.648,-0.609 1.027,-0.914 0.379,-0.301 0.719,-0.605 1.028,-0.91 0.148,-0.152 0.265,-0.27 0.343,-0.344 0.074,-0.074 0.188,-0.113 0.34,-0.113 1.82,-1.516 3.492,-3.149 5.012,-4.899 1.519,-1.746 2.277,-3.832 2.277,-6.265 l 0,-88.6409 z m 28.711,88.6409 c 0,2.125 0.231,4.101 0.688,5.926 0.453,1.82 1.363,3.492 2.734,5.011 1.52,1.672 3.305,2.848 5.352,3.535 2.054,0.68 4.289,1.024 6.722,1.024 l 45.117,0 c 2.282,0 4.371,-0.27 6.27,-0.797 1.898,-0.535 3.609,-1.633 5.125,-3.305 1.519,-1.519 2.547,-3.23 3.078,-5.129 0.531,-1.898 0.797,-3.988 0.797,-6.265 l 0,-75.8792 c 0,-1.9765 -0.305,-3.8359 -0.91,-5.5859 -0.61,-1.7461 -1.52,-3.3789 -2.735,-4.8984 -1.519,-1.668 -3.23,-2.8438 -5.129,-3.5313 -1.898,-0.6836 -3.988,-1.0273 -6.265,-1.0273 l -45.805,0 c -2.277,0 -4.324,0.3789 -6.152,1.1406 -1.82,0.7578 -3.492,1.8984 -5.012,3.418 -1.516,1.6718 -2.543,3.3437 -3.074,5.0117 -0.531,1.6719 -0.801,3.5703 -0.801,5.6992 l 0,75.6526 z m 30.309,-73.3752 c 0,-0.1485 0,-0.3047 0,-0.4571 0,-0.3008 0.078,-0.5703 0.226,-0.7969 0.157,-0.2265 0.305,-0.414 0.457,-0.5664 0.305,-0.1562 0.532,-0.2304 0.688,-0.2304 l 0.222,0 c 0.153,-0.1524 0.27,-0.2266 0.344,-0.2266 0.078,0 0.192,0 0.34,0 l 25.977,0 c 0.156,0 0.269,0 0.343,0 0.075,0 0.192,0.0742 0.344,0.2266 l 0.227,0 c 0.148,0 0.379,0.0742 0.683,0.2304 0.153,0.1524 0.301,0.3399 0.453,0.5664 0.157,0.2266 0.231,0.4961 0.231,0.7969 0,0.1524 0,0.3086 0,0.4571 l -0.231,71.3242 c 0,0.152 0,0.266 0,0.34 0,0.074 -0.074,0.191 -0.226,0.344 l 0,0.226 c 0,0.156 -0.074,0.383 -0.227,0.684 -0.152,0.152 -0.34,0.304 -0.57,0.457 -0.227,0.152 -0.492,0.226 -0.797,0.226 -0.152,0 -0.305,0 -0.457,0 l -40.789,0 c -0.152,0 -0.266,0 -0.34,0 -0.074,0 -0.191,-0.074 -0.344,-0.226 -0.152,0 -0.304,-0.078 -0.453,-0.231 -0.152,0 -0.308,-0.074 -0.457,-0.226 -0.152,-0.149 -0.226,-0.301 -0.226,-0.457 -0.153,-0.149 -0.231,-0.301 -0.231,-0.453 -0.148,-0.153 -0.226,-0.27 -0.226,-0.344 0,-0.074 0,-0.188 0,-0.34 l 0,-20.738 c 0,-1.364 0.379,-2.582 1.14,-3.645 0.758,-1.062 1.59,-2.047 2.504,-2.961 0.153,-0.152 0.266,-0.304 0.344,-0.457 0.078,-0.148 0.191,-0.226 0.34,-0.226 0.609,-0.61 1.14,-1.18 1.597,-1.711 0.454,-0.532 0.911,-1.102 1.364,-1.707 0.457,-0.606 0.949,-1.215 1.484,-1.825 0.531,-0.609 1.024,-1.214 1.481,-1.82 0.156,-0.156 0.339,-0.305 0.57,-0.457 0.226,-0.152 0.418,-0.305 0.57,-0.457 0.91,-1.062 1.746,-2.125 2.508,-3.191 0.758,-1.063 1.137,-2.352 1.137,-3.871 l 0,-28.2582 z m 89.324,73.6012 -0.457,0 c -0.149,-0.148 -0.301,-0.226 -0.453,-0.226 -0.153,0 -0.305,-0.078 -0.457,-0.231 -0.153,-0.148 -0.227,-0.3 -0.227,-0.457 l 0,-0.226 c -0.152,0 -0.23,-0.149 -0.23,-0.453 l 0,-21.649 c 0,-1.519 0.343,-2.773 1.031,-3.762 0.68,-0.984 1.48,-1.933 2.387,-2.843 0.156,-0.153 0.343,-0.344 0.57,-0.575 0.227,-0.226 0.418,-0.414 0.57,-0.57 0.457,-0.605 0.91,-1.137 1.367,-1.59 0.458,-0.457 0.915,-0.992 1.368,-1.597 0.457,-0.606 0.953,-1.215 1.48,-1.825 0.535,-0.605 1.027,-1.136 1.485,-1.593 0.148,-0.305 0.343,-0.532 0.566,-0.684 0.23,-0.152 0.418,-0.305 0.57,-0.453 1.063,-0.914 1.938,-1.902 2.621,-2.965 0.684,-1.062 1.028,-2.355 1.028,-3.875 l 0,-43.2929 c 0,-0.3047 0,-0.6093 0,-0.9101 0,-0.3086 -0.153,-0.6094 -0.457,-0.9141 -0.453,-0.1484 -0.762,-0.3047 -0.911,-0.457 -0.152,0 -0.269,0 -0.343,0 -0.074,0 -0.192,0 -0.344,0 l -11.621,0 c -2.43,0 -4.746,0.3086 -6.949,0.914 -2.2,0.6055 -4.141,1.8204 -5.809,3.6446 -1.371,1.6718 -2.355,3.3437 -2.961,5.0117 -0.609,1.6719 -0.914,3.5703 -0.914,5.6992 l 0,76.7926 c 0,1.821 0.344,3.454 1.027,4.899 0.68,1.445 1.555,2.844 2.618,4.215 1.519,1.824 3.191,3.152 5.015,3.988 1.821,0.836 3.949,1.254 6.379,1.254 l 42.84,0 c 0.152,0 0.266,0 0.34,0 0.078,0 0.113,-0.078 0.113,-0.227 0.156,0 0.27,0 0.344,0 0.078,0 0.113,-0.078 0.113,-0.23 0.152,0 0.305,-0.074 0.457,-0.227 0.153,-0.152 0.231,-0.304 0.231,-0.457 0.148,-0.152 0.226,-0.304 0.226,-0.457 0.149,-0.148 0.231,-0.262 0.231,-0.34 0,-0.074 0,-0.191 0,-0.343 l 0,-10.707 c 0,-0.157 0,-0.305 0,-0.457 0,-0.305 -0.082,-0.567 -0.231,-0.797 -0.152,-0.227 -0.304,-0.422 -0.457,-0.571 -0.305,-0.152 -0.531,-0.226 -0.683,-0.226 l -0.231,0 c -0.148,-0.153 -0.262,-0.231 -0.34,-0.231 -0.074,0 -0.191,0 -0.343,0 l -40.559,0 z m -119.391,525.996 271.457,0 0,-274.187 C 536.348,421.762 421.578,537.441 408.738,681.691 Z m -408.738,0 357.605,0 C 370.707,509.367 508.27,370.914 680.195,356.367 l 0,-354.87091 L 0,1.49609 0,681.691" /><path
         id="path20"
         style="fill:#231f20;fill-opacity:1;fill-rule:evenodd;stroke:none"
         d="m 1062.71,681.691 354.61,0 0,-680.19491 -683.191,0 0,354.41791 c 174.719,11.797 315.331,151.453 328.581,325.777 z m -328.581,0 277.451,0 C 998.563,535.441 880.777,418.559 734.129,406.973 l 0,274.718 z M 894.383,79.6211 c 0,-1.9766 -0.301,-3.8359 -0.91,-5.5859 -0.61,-1.7461 -1.52,-3.3789 -2.735,-4.8985 -1.519,-1.6719 -3.226,-2.8476 -5.129,-3.5312 -1.898,-0.6875 -3.988,-1.0274 -6.265,-1.0274 l -61.067,0 c -2.277,0 -4.332,0.3789 -6.152,1.1407 -1.824,0.7578 -3.496,1.8984 -5.016,3.4179 -1.519,1.668 -2.546,3.3399 -3.078,5.0156 -0.531,1.668 -0.793,3.5665 -0.793,5.6954 l 0,105.7263 c 0,2.285 0.34,4.371 1.024,6.27 0.683,1.898 1.785,3.609 3.304,5.129 1.52,1.519 3.192,2.617 5.012,3.3 1.824,0.688 3.801,1.028 5.926,1.028 l 60.613,0 c 2.278,0 4.367,-0.27 6.266,-0.797 1.898,-0.535 3.605,-1.633 5.125,-3.305 1.519,-1.519 2.547,-3.23 3.078,-5.129 0.531,-1.898 0.797,-3.988 0.797,-6.265 l 0,-106.1839 z M 834,82.125 c 0,-0.1523 0,-0.3047 0,-0.457 0,-0.3008 0.074,-0.5703 0.227,-0.7969 0.152,-0.2266 0.304,-0.418 0.453,-0.5703 0.308,-0.1524 0.531,-0.2266 0.687,-0.2266 l 0.227,0 c 0.152,-0.1523 0.265,-0.2265 0.344,-0.2265 0.074,0 0.187,0 0.339,0 l 40.789,0 c 0.153,0 0.266,0 0.34,0 0.078,0 0.192,0.0742 0.344,0.2265 l 0.227,0 c 0.152,0 0.382,0.0742 0.683,0.2266 0.153,0.1523 0.305,0.3437 0.457,0.5703 0.149,0.2266 0.227,0.4961 0.227,0.7969 0,0.1523 0,0.3047 0,0.457 l 0,101.629 c 0,0.152 0,0.266 0,0.344 0,0.074 -0.078,0.187 -0.227,0.34 l 0,0.226 c 0,0.156 -0.078,0.383 -0.226,0.684 -0.153,0.156 -0.344,0.304 -0.575,0.457 -0.226,0.152 -0.492,0.226 -0.796,0.226 -0.149,0 -0.301,0 -0.454,0 l -56.054,0 c -0.153,0 -0.27,0 -0.344,0 -0.074,0 -0.188,-0.074 -0.34,-0.226 -0.156,0 -0.305,-0.075 -0.457,-0.231 -0.152,0 -0.305,-0.07 -0.453,-0.226 -0.156,-0.153 -0.23,-0.301 -0.23,-0.453 -0.153,-0.157 -0.227,-0.305 -0.227,-0.457 -0.152,-0.153 -0.231,-0.266 -0.231,-0.34 0,-0.078 0,-0.192 0,-0.344 l 0,-36.231 c 0,-1.367 0.379,-2.582 1.141,-3.644 0.758,-1.063 1.594,-2.051 2.504,-2.965 0.152,-0.152 0.266,-0.305 0.34,-0.453 0.082,-0.152 0.195,-0.227 0.344,-0.227 0.605,-0.609 1.14,-1.179 1.597,-1.714 0.457,-0.528 0.91,-1.098 1.364,-1.707 0.457,-0.61 0.953,-1.215 1.484,-1.825 0.531,-0.605 1.101,-1.211 1.707,-1.824 0.156,0 0.269,-0.074 0.344,-0.226 0.074,-0.149 0.187,-0.227 0.34,-0.227 1.066,-1.063 2.015,-2.164 2.847,-3.305 0.84,-1.136 1.258,-2.543 1.258,-4.215 l 0,-43.066 z m 100.941,50.359 c 0,-1.519 0.344,-2.773 1.028,-3.761 0.683,-0.985 1.48,-1.934 2.39,-2.848 0.157,-0.148 0.344,-0.344 0.571,-0.57 0.23,-0.231 0.418,-0.414 0.574,-0.571 0.449,-0.609 0.906,-1.136 1.363,-1.593 0.457,-0.457 0.914,-0.989 1.367,-1.598 0.457,-0.605 0.954,-1.211 1.481,-1.82 0.535,-0.61 1.027,-1.141 1.484,-1.594 0.149,-0.305 0.344,-0.535 0.571,-0.684 0.226,-0.152 0.414,-0.304 0.57,-0.457 1.062,-0.914 1.933,-1.898 2.617,-2.961 0.688,-1.062 1.027,-2.355 1.027,-3.875 l 0,-43.2926 c 0,-0.3086 0,-0.6094 0,-0.9141 0,-0.3047 -0.152,-0.6055 -0.453,-0.914 -0.457,-0.1485 -0.765,-0.3008 -0.914,-0.4532 -0.152,0 -0.265,0 -0.344,0 -0.074,0 -0.187,0 -0.343,0 l -11.621,0 c -2.43,0 -4.746,0.3047 -6.95,0.9102 -2.199,0.6094 -4.136,1.8242 -5.808,3.6484 -1.367,1.668 -2.356,3.3399 -2.961,5.0156 -0.61,1.668 -0.914,3.5665 -0.914,5.6954 l 0,89.0933 c 0,0.153 0,0.266 0,0.344 0,0.078 0.074,0.113 0.226,0.113 l 0,0.227 0.231,0 c 0,0.152 0.074,0.379 0.226,0.688 l 0.231,0.226 c 0.152,0.149 0.262,0.227 0.34,0.227 0.078,0 0.191,0 0.34,0 0.152,0.152 0.269,0.23 0.343,0.23 0.078,0 0.192,0 0.344,0 l 10.707,0 c 0.305,0 0.645,-0.043 1.027,-0.113 0.379,-0.078 0.645,-0.27 0.797,-0.57 0.153,-0.458 0.305,-0.766 0.453,-0.915 0,-0.152 0,-0.265 0,-0.343 0,-0.075 0,-0.188 0,-0.344 l 0,-36.227 z m 4.786,64.032 0,-7.977 c 0,-0.152 0,-0.266 0,-0.344 0,-0.074 -0.075,-0.187 -0.223,-0.336 l 0,-0.23 c 0,-0.152 -0.078,-0.383 -0.231,-0.684 -0.152,-0.152 -0.343,-0.304 -0.57,-0.457 -0.226,-0.148 -0.492,-0.23 -0.797,-0.23 -0.152,0 -0.304,0 -0.457,0 l -10.711,0 c -0.148,0 -0.261,0.039 -0.34,0.117 -0.074,0.078 -0.187,0.113 -0.339,0.113 -0.157,0 -0.231,0.078 -0.231,0.227 -0.152,0 -0.379,0.078 -0.683,0.23 -0.149,0.149 -0.305,0.301 -0.454,0.457 0,0.149 -0.078,0.227 -0.226,0.227 0,0.148 -0.082,0.379 -0.231,0.684 l -7.293,11.39 0,7.293 c 0,0.152 0,0.266 0,0.34 0,0.078 0.079,0.117 0.227,0.117 0,0.152 0,0.266 0,0.34 0,0.078 0.078,0.117 0.227,0.117 0,0.149 0.082,0.301 0.23,0.453 0.152,0.153 0.305,0.227 0.457,0.227 0.152,0.152 0.305,0.226 0.457,0.226 0.149,0.157 0.262,0.231 0.34,0.231 0.078,0 0.191,0 0.344,0 l 10.707,0 c 0.304,0 0.535,-0.035 0.683,-0.113 0.153,-0.075 0.379,-0.192 0.684,-0.344 l 0.457,-0.227 c 0.148,0 0.266,-0.117 0.344,-0.34 0.074,-0.23 0.187,-0.418 0.34,-0.57 0,-0.152 0.039,-0.265 0.117,-0.344 0.07,-0.074 0.109,-0.187 0.109,-0.339 l 7.063,-10.254 z M 978.922,34.2734 c -0.149,0.1524 -0.262,0.2227 -0.34,0.2227 -0.078,0 -0.191,0.082 -0.344,0.2305 -0.148,0 -0.304,0.0781 -0.457,0.2265 -0.148,0 -0.301,0.0782 -0.453,0.2305 -0.152,0.1484 -0.23,0.3047 -0.23,0.457 -0.153,0.1485 -0.227,0.3008 -0.227,0.4571 -0.152,0.1484 -0.226,0.2617 -0.226,0.3398 0,0.0742 0,0.1875 0,0.3438 l 0,10.4804 c 0,0.3047 0,0.5313 0,0.6797 0,0.3086 0.074,0.5703 0.226,0.8008 0.152,0.2266 0.305,0.418 0.457,0.5703 0.305,0.1484 0.531,0.2266 0.68,0.2266 l 0.23,0 c 0.153,0.1523 0.266,0.2304 0.344,0.2304 0.078,0 0.191,0 0.34,0 l 56.058,-0.2304 c 0.15,0.1523 0.31,0.2304 0.45,0.2304 0.31,0 0.57,0.0703 0.8,0.2266 0.23,0.1523 0.42,0.3008 0.57,0.4531 0.15,0.3047 0.23,0.5313 0.23,0.6836 l 0,0.2266 c 0.15,0.1562 0.23,0.2695 0.23,0.3437 0,0.0782 0,0.1914 0,0.3399 l 0,10.2578 c 0,0.3047 0,0.5273 0,0.6836 0,0.3008 -0.08,0.5703 -0.23,0.7969 -0.15,0.2265 -0.3,0.4179 -0.46,0.5664 -0.3,0.1562 -0.53,0.2304 -0.68,0.2304 l -0.23,0 c -0.15,0 -0.26,0 -0.34,0 -0.07,0 -0.19,0 -0.34,0 l -43.296,0 c -2.278,0 -4.368,0.3789 -6.266,1.1407 -1.902,0.7578 -3.609,1.9765 -5.129,3.6445 -1.215,1.5195 -2.125,3.1523 -2.734,4.9023 -0.61,1.7422 -0.91,3.6055 -0.91,5.5821 l 0,75.8753 c 0,2.285 0.3,4.371 0.91,6.269 0.609,1.903 1.672,3.61 3.191,5.129 1.672,1.52 3.418,2.539 5.238,3.074 1.825,0.532 3.875,0.801 6.157,0.801 l 45.119,0 c 2.43,0 4.67,-0.308 6.72,-0.914 2.05,-0.605 3.84,-1.824 5.36,-3.644 1.36,-1.52 2.23,-3.192 2.61,-5.012 0.38,-1.828 0.57,-3.801 0.57,-5.891 l 0,-106.2225 c 0,-2.0508 -0.3,-3.9531 -0.91,-5.7734 -0.61,-1.7852 -1.59,-3.4532 -2.96,-5.0547 -1.52,-1.7031 -3.23,-2.8438 -5.13,-3.3789 -1.9,-0.5664 -3.98,-0.8321 -6.26,-0.8321 l -58.338,0 z m 43.298,76.1096 c 0,2.273 0.64,4.172 1.94,5.691 1.29,1.52 2.77,3.039 4.44,4.559 0.15,0 0.26,0.039 0.34,0.117 0.08,0.074 0.11,0.188 0.11,0.34 0.16,0 0.27,0.039 0.34,0.113 0.08,0.078 0.2,0.192 0.35,0.34 0.15,0.152 0.26,0.27 0.34,0.344 0.08,0.078 0.19,0.113 0.34,0.113 0,0.152 0.04,0.266 0.12,0.344 0.07,0.074 0.19,0.113 0.34,0.113 1.67,1.52 3.15,3.039 4.44,4.559 1.29,1.519 1.94,3.418 1.94,5.695 l 0,20.738 c 0,0.149 0,0.262 0,0.34 0,0.074 -0.08,0.188 -0.23,0.344 l 0,0.226 c 0,0.153 -0.08,0.379 -0.23,0.68 l -0.23,0.231 c -0.15,0.152 -0.26,0.226 -0.34,0.226 -0.07,0 -0.19,0 -0.34,0 -0.15,0.156 -0.26,0.227 -0.34,0.227 -0.08,0 -0.19,0 -0.34,0 l -41.019,0 c -0.304,0 -0.609,-0.035 -0.91,-0.114 -0.308,-0.074 -0.609,-0.261 -0.914,-0.57 -0.152,-0.453 -0.304,-0.754 -0.457,-0.906 0,-0.156 0,-0.27 0,-0.344 0,-0.078 0,-0.191 0,-0.34 l -0.226,-71.324 c 0,-0.3047 0.078,-0.6094 0.226,-0.9141 0.153,-0.3007 0.305,-0.6054 0.457,-0.9101 0.457,-0.1524 0.758,-0.3047 0.914,-0.4531 0.149,0 0.262,0 0.34,0 0.074,0 0.188,0 0.34,0 l 25.979,0 c 0.15,0 0.27,0 0.34,0 0.08,0 0.19,0.0742 0.34,0.2265 l 0.23,0 c 0.15,0 0.38,0.0742 0.68,0.2266 0.16,0.1523 0.31,0.3437 0.46,0.5703 0.15,0.2266 0.23,0.4961 0.23,0.7969 0,0.1523 0,0.3047 0,0.457 l 0,28.258 z m 72.23,22.101 c 0,-1.519 0.34,-2.773 1.03,-3.761 0.68,-0.985 1.48,-1.934 2.39,-2.848 0.15,-0.148 0.34,-0.344 0.57,-0.57 0.23,-0.231 0.42,-0.414 0.57,-0.571 0.45,-0.609 0.91,-1.136 1.37,-1.593 0.46,-0.457 0.91,-0.989 1.36,-1.598 0.46,-0.605 0.95,-1.211 1.48,-1.82 0.53,-0.61 1.03,-1.141 1.48,-1.594 0.16,-0.305 0.35,-0.535 0.58,-0.684 0.22,-0.152 0.41,-0.304 0.57,-0.457 1.06,-0.914 1.93,-1.898 2.61,-2.961 0.69,-1.062 1.03,-2.355 1.03,-3.875 l 0,-43.2926 c 0,-0.3086 0,-0.6094 0,-0.9141 0,-0.3047 -0.15,-0.6055 -0.45,-0.914 -0.46,-0.1485 -0.76,-0.3008 -0.92,-0.4532 -0.15,0 -0.26,0 -0.34,0 -0.07,0 -0.19,0 -0.34,0 l -11.62,0 c -2.43,0 -4.75,0.3047 -6.95,0.9102 -2.21,0.6094 -4.14,1.8242 -5.81,3.6484 -1.37,1.668 -2.36,3.3399 -2.96,5.0156 -0.61,1.668 -0.92,3.5665 -0.92,5.6954 l 0,89.0933 c 0,0.153 0,0.266 0,0.344 0,0.078 0.08,0.113 0.23,0.113 l 0,0.227 0.23,0 c 0,0.152 0.07,0.379 0.23,0.688 l 0.23,0.226 c 0.15,0.149 0.26,0.227 0.34,0.227 0.07,0 0.19,0 0.34,0 0.15,0.152 0.27,0.23 0.34,0.23 0.08,0 0.19,0 0.34,0 l 10.71,0 c 0.31,0 0.65,-0.043 1.03,-0.113 0.38,-0.078 0.64,-0.27 0.8,-0.57 0.15,-0.458 0.3,-0.766 0.45,-0.915 0,-0.152 0,-0.265 0,-0.343 0,-0.075 0,-0.188 0,-0.344 l 0,-36.227 z m 4.78,64.032 0,-7.977 c 0,-0.152 0,-0.266 0,-0.344 0,-0.074 -0.07,-0.187 -0.22,-0.336 l 0,-0.23 c 0,-0.152 -0.08,-0.383 -0.23,-0.684 -0.15,-0.152 -0.34,-0.304 -0.57,-0.457 -0.23,-0.148 -0.5,-0.23 -0.79,-0.23 -0.16,0 -0.31,0 -0.46,0 l -10.71,0 c -0.15,0 -0.27,0.039 -0.34,0.117 -0.08,0.078 -0.2,0.113 -0.34,0.113 -0.16,0 -0.23,0.078 -0.23,0.227 -0.16,0 -0.38,0.078 -0.69,0.23 -0.15,0.149 -0.3,0.301 -0.45,0.457 0,0.149 -0.08,0.227 -0.23,0.227 0,0.148 -0.08,0.379 -0.23,0.684 l -7.29,11.39 0,7.293 c 0,0.152 0,0.266 0,0.34 0,0.078 0.08,0.117 0.23,0.117 0,0.152 0,0.266 0,0.34 0,0.078 0.07,0.117 0.23,0.117 0,0.149 0.07,0.301 0.22,0.453 0.16,0.153 0.31,0.227 0.46,0.227 0.15,0.152 0.3,0.226 0.45,0.226 0.16,0.157 0.27,0.231 0.35,0.231 0.07,0 0.19,0 0.34,0 l 10.71,0 c 0.3,0 0.53,-0.035 0.68,-0.113 0.16,-0.075 0.38,-0.192 0.69,-0.344 l 0.45,-0.227 c 0.15,0 0.27,-0.117 0.34,-0.34 0.08,-0.23 0.2,-0.418 0.35,-0.57 0,-0.152 0.03,-0.265 0.11,-0.344 0.08,-0.074 0.11,-0.187 0.11,-0.339 l 7.06,-10.254 z m 51.05,-43.067 c 0,0.149 0,0.301 0,0.457 0,0.297 -0.08,0.567 -0.23,0.793 -0.15,0.227 -0.3,0.418 -0.45,0.571 -0.31,0.152 -0.54,0.226 -0.69,0.226 l -0.23,0 c -0.14,0.156 -0.26,0.227 -0.34,0.227 -0.07,0 -0.19,0 -0.34,0 l -10.94,0 c -0.3,0 -0.45,0.082 -0.45,0.23 -0.15,0 -0.27,0 -0.34,0 -0.08,0 -0.12,0.078 -0.12,0.227 -0.15,0 -0.3,0.078 -0.45,0.23 -0.15,0.149 -0.23,0.305 -0.23,0.457 -0.15,0.149 -0.23,0.301 -0.23,0.457 -0.15,0.149 -0.23,0.262 -0.23,0.34 0,0.074 0,0.188 0,0.344 l 0,10.703 c 0,0.156 0,0.309 0,0.457 0,0.309 0.08,0.57 0.23,0.801 0.15,0.226 0.31,0.418 0.46,0.57 0.3,0.149 0.53,0.227 0.68,0.227 l 0.23,0 c 0.15,0.152 0.27,0.23 0.34,0.23 0.08,0 0.19,0 0.34,0 l 10.94,0 c 0.15,0 0.27,0 0.34,0 0.08,0 0.19,0.07 0.34,0.227 0.15,0 0.27,0 0.34,0 0.08,0 0.2,0.074 0.35,0.226 l 0.22,0.227 c 0.16,0.304 0.23,0.531 0.23,0.683 l 0,0.227 c 0.15,0.152 0.23,0.269 0.23,0.344 0,0.078 0,0.191 0,0.34 l 0,26.207 c 0,0.152 0,0.265 0,0.339 0,0.079 0.08,0.118 0.23,0.118 l 0,0.226 0.22,0 c 0,0.149 0.08,0.379 0.23,0.688 l 0.23,0.226 c 0.15,0.149 0.27,0.227 0.34,0.227 0.08,0 0.19,0 0.35,0 0.15,0.152 0.26,0.226 0.33,0.226 0.08,0 0.2,0 0.35,0 l 10.71,0 c 0.15,0 0.3,0 0.45,0 0.31,0 0.57,-0.074 0.8,-0.226 0.23,-0.153 0.42,-0.305 0.57,-0.453 0.15,-0.309 0.23,-0.539 0.23,-0.688 l 0,-0.226 c 0.15,-0.153 0.23,-0.266 0.23,-0.344 0,-0.074 0,-0.188 0,-0.344 l 0,-25.976 c 0,-0.149 0,-0.262 0,-0.34 0,-0.075 0.08,-0.192 0.22,-0.344 0,-0.148 0.08,-0.301 0.23,-0.453 0,-0.153 0.08,-0.301 0.23,-0.457 0.15,-0.153 0.31,-0.227 0.46,-0.227 0,-0.152 0.03,-0.226 0.11,-0.226 0.08,0 0.19,0 0.34,0 0,-0.157 0.15,-0.227 0.46,-0.227 l 25.97,0 c 0.16,0 0.27,0 0.34,0 0.08,0 0.2,-0.078 0.35,-0.23 l 0.23,0 c 0.15,0 0.38,-0.078 0.68,-0.227 0.15,-0.152 0.31,-0.344 0.46,-0.57 0.15,-0.231 0.22,-0.492 0.22,-0.801 0,-0.148 0,-0.301 0,-0.457 l 0,-10.477 c 0,-0.156 0,-0.269 0,-0.339 0,-0.079 -0.07,-0.196 -0.22,-0.344 l 0,-0.227 c 0,-0.156 -0.08,-0.383 -0.24,-0.687 -0.14,-0.149 -0.37,-0.34 -0.68,-0.571 -0.3,-0.226 -0.6,-0.343 -0.91,-0.343 l -25.98,0 c -0.15,0 -0.26,0 -0.34,0 -0.07,0 -0.19,0 -0.34,0 -0.15,-0.149 -0.45,-0.301 -0.91,-0.453 -0.3,-0.301 -0.49,-0.645 -0.57,-1.024 -0.07,-0.383 -0.11,-0.723 -0.11,-1.027 l 0,-20.735 c 0,-2.129 0.57,-3.914 1.71,-5.355 1.13,-1.445 2.39,-2.774 3.76,-3.988 0.15,-0.153 0.3,-0.266 0.45,-0.34 0.16,-0.078 0.23,-0.196 0.23,-0.344 0.15,-0.152 0.34,-0.305 0.57,-0.457 0.23,-0.148 0.42,-0.305 0.57,-0.457 0.45,-0.301 0.87,-0.641 1.25,-1.023 0.38,-0.379 0.8,-0.719 1.25,-1.024 1.37,-1.367 2.59,-2.734 3.65,-4.101 1.06,-1.368 1.6,-3.114 1.6,-5.243 l 0,-43.2926 c 0,-0.3086 0,-0.6094 0,-0.9141 0,-0.3047 -0.16,-0.6055 -0.46,-0.914 -0.45,-0.1485 -0.76,-0.3008 -0.91,-0.4532 -0.15,0 -0.27,0 -0.34,0 -0.08,0 -0.19,0 -0.34,0 l -11.63,0 c -2.43,0 -4.74,0.3047 -6.95,0.9102 -2.2,0.6094 -4.14,1.8242 -5.8,3.6484 -1.37,1.668 -2.36,3.3399 -2.97,5.0156 -0.61,1.668 -0.91,3.5665 -0.91,5.6954 l 0,73.6013 z m 73.6,-43.297 c 0,2.129 0.27,4.063 0.8,5.809 0.53,1.75 1.56,3.383 3.08,4.902 1.51,1.668 3.19,2.848 5.01,3.532 1.82,0.679 3.87,1.023 6.15,1.023 l 43.3,0 c 0.15,0 0.26,0 0.34,0 0.07,0 0.19,0.078 0.34,0.227 l 0.23,0 c 0.15,0 0.38,0.082 0.68,0.23 0.15,0.152 0.3,0.344 0.46,0.57 0.15,0.227 0.23,0.493 0.23,0.801 0,0.149 0,0.297 0,0.453 l 0,25.75 c 0,0.149 0,0.262 0,0.34 0,0.074 -0.08,0.188 -0.23,0.344 l 0,0.226 c 0,0.153 -0.08,0.379 -0.23,0.68 -0.15,0.156 -0.34,0.309 -0.57,0.457 -0.23,0.156 -0.49,0.227 -0.79,0.227 -0.16,0 -0.31,0 -0.46,0 l -40.79,0 c -0.15,0 -0.27,0 -0.34,0 -0.08,0 -0.2,-0.071 -0.34,-0.227 -0.16,0 -0.31,-0.074 -0.46,-0.226 -0.15,0 -0.31,-0.075 -0.46,-0.231 -0.15,-0.148 -0.22,-0.301 -0.22,-0.453 -0.16,-0.152 -0.23,-0.301 -0.23,-0.453 -0.15,-0.156 -0.23,-0.27 -0.23,-0.344 0,-0.078 0,-0.191 0,-0.34 l 0,-10.711 c 0,-0.152 0,-0.304 0,-0.457 0,-0.301 -0.08,-0.57 -0.23,-0.797 -0.15,-0.226 -0.3,-0.418 -0.46,-0.57 -0.3,-0.152 -0.53,-0.226 -0.68,-0.226 l -0.23,0 c -0.15,-0.153 -0.26,-0.227 -0.34,-0.227 -0.07,0 -0.19,0 -0.34,0 l -10.71,0 c -0.15,0 -0.27,0 -0.34,0 -0.08,0 -0.19,0.074 -0.34,0.227 l -0.23,0 c -0.15,0 -0.38,0.074 -0.68,0.226 -0.16,0.152 -0.31,0.344 -0.46,0.57 -0.15,0.227 -0.23,0.496 -0.23,0.797 0,0.153 0,0.305 0,0.457 l 0,12.758 c 0,2.281 0.34,4.371 1.03,6.27 0.68,1.898 1.78,3.609 3.3,5.129 1.52,1.363 3.11,2.425 4.79,3.187 1.67,0.758 3.57,1.141 5.7,1.141 l 45.8,0 c 2.27,0 4.4,-0.27 6.38,-0.797 1.97,-0.535 3.72,-1.633 5.23,-3.305 1.37,-1.519 2.32,-3.191 2.85,-5.016 0.54,-1.82 0.8,-3.796 0.8,-5.925 l -0.23,-76.5589 c 0,-1.9766 -0.3,-3.8359 -0.91,-5.5859 -0.6,-1.7461 -1.52,-3.3789 -2.73,-4.8985 -1.52,-1.6719 -3.23,-2.8476 -5.13,-3.5312 -1.9,-0.6875 -3.99,-1.0274 -6.26,-1.0274 l -45.35,0 c -2.28,0 -4.33,0.3789 -6.15,1.1407 -1.82,0.7578 -3.5,1.8984 -5.02,3.4179 -1.52,1.668 -2.54,3.3399 -3.07,5.0156 -0.53,1.668 -0.8,3.5665 -0.8,5.6954 l -0.23,30.3043 z m 30.08,-28.027 c 0,-0.1523 0,-0.3047 0,-0.457 0,-0.3008 0.08,-0.5703 0.23,-0.7969 0.15,-0.2266 0.3,-0.418 0.45,-0.5703 0.31,-0.1524 0.54,-0.2266 0.69,-0.2266 l 0.22,0 c 0.16,-0.1523 0.27,-0.2265 0.34,-0.2265 0.08,0 0.2,0 0.35,0 l 26.21,0 c 0.14,0 0.26,0 0.34,0 0.07,0 0.19,0.0742 0.34,0.2265 l 0.23,0 c 0.15,0 0.38,0.0742 0.68,0.2266 0.15,0.1523 0.3,0.3437 0.46,0.5703 0.15,0.2266 0.22,0.4961 0.22,0.7969 0,0.1523 0,0.3047 0,0.457 l 0,25.746 c 0,0.156 0,0.27 0,0.344 0,0.078 -0.07,0.191 -0.22,0.34 l 0,0.23 c 0,0.149 -0.08,0.379 -0.23,0.684 -0.16,0.148 -0.34,0.304 -0.57,0.457 -0.23,0.148 -0.5,0.226 -0.8,0.226 -0.15,0 -0.31,0 -0.45,0 l -26.21,0 c -0.15,0 -0.27,0 -0.35,0 -0.07,0 -0.18,-0.078 -0.34,-0.226 -0.15,0 -0.3,-0.078 -0.45,-0.227 -0.15,0 -0.3,-0.082 -0.46,-0.23 -0.15,-0.153 -0.23,-0.305 -0.23,-0.457 -0.14,-0.149 -0.22,-0.301 -0.22,-0.457 -0.15,-0.149 -0.23,-0.262 -0.23,-0.34 0,-0.074 0,-0.188 0,-0.344 l 0,-25.746 z M 1358.1,66.8594 c 0,-0.3086 0,-0.6094 0,-0.9141 0,-0.3047 -0.15,-0.6055 -0.46,-0.914 -0.46,-0.1485 -0.76,-0.3008 -0.91,-0.4532 -0.15,0 -0.27,0 -0.34,0 -0.08,0 -0.19,0 -0.34,0 l -11.85,0 c -2.43,0 -4.75,0.3047 -6.95,0.9102 -2.21,0.6094 -4.14,1.8242 -5.81,3.6484 -1.37,1.668 -2.36,3.3399 -2.97,5.0156 -0.6,1.668 -0.91,3.5665 -0.91,5.6954 l 0,119.3983 c 0,0.156 0,0.27 0,0.344 0,0.078 0.08,0.191 0.23,0.344 0,0.148 0.08,0.304 0.23,0.457 0,0.148 0.07,0.3 0.23,0.457 0.15,0.148 0.3,0.226 0.45,0.226 0.16,0.149 0.3,0.227 0.46,0.227 0.15,0.152 0.26,0.226 0.34,0.226 0.07,0 0.19,0 0.34,0 l 10.71,0 c 0.15,0 0.31,0 0.45,0 0.31,0 0.57,-0.074 0.8,-0.226 0.23,-0.153 0.42,-0.305 0.58,-0.453 0.14,-0.309 0.22,-0.539 0.22,-0.688 l 0,-0.226 c 0.15,-0.153 0.23,-0.266 0.23,-0.344 0,-0.074 0,-0.188 0,-0.344 l 0,-21.414 c 0,-1.977 0.53,-3.648 1.6,-5.016 1.06,-1.367 2.27,-2.66 3.64,-3.875 0.31,-0.3 0.64,-0.605 1.03,-0.91 0.38,-0.304 0.72,-0.609 1.02,-0.91 0.15,-0.156 0.27,-0.269 0.34,-0.344 0.08,-0.078 0.19,-0.113 0.34,-0.113 1.83,-1.519 3.5,-3.152 5.02,-4.898 1.52,-1.746 2.28,-3.836 2.28,-6.27 l 0,-88.6366" /></g></g></svg>